<?xml version="1.0" encoding="UTF-8" standalone="no"?>
<svg
   version="1.1"
   width="574.89886"
   height="608.76355"
   id="svg519"
   xmlns="http://www.w3.org/2000/svg"
   xmlns:svg="http://www.w3.org/2000/svg">
  <defs
     id="defs519" />
  <path
     d="m 194.69531,16.447037 c 17.45023,16.299667 17.88068,35.516922 18.8125,58.8125 52.8,0 105.6,0 160,0 -0.33,-0.99 -0.66,-1.98 -1,-3 -0.61967,-18.428614 1.89141,-36.962131 14.3125,-51.3125 9.75109,-10.140483 21.49022,-17.7772343 35.6875,-19.6875003 0.96164,-0.155977 1.92328,-0.31195296 2.91406,-0.47265596 15.90705,-1.99321904 29.49802,4.30141996 41.9375,13.60546826 10.81458,9.115608 17.7393,21.925342 20.14844,35.867188 0.11823,1.729677 0.19878,3.462246 0.24609,5.195312 0.0329,0.96293 0.0658,1.92586 0.0996,2.917969 0.0614,2.015503 0.1187,4.031138 0.17188,6.046875 0.0342,0.960352 0.0683,1.920703 0.10351,2.910156 0.0251,0.874146 0.0501,1.748292 0.0759,2.648926 0.1694,2.557391 0.1694,2.557391 2.30298,5.280762 2.07854,0.657961 2.07854,0.657961 4.50781,0.878906 0.90492,0.11666 1.80985,0.233321 2.74219,0.353516 0.94875,0.108926 1.8975,0.217851 2.875,0.330078 22.34438,2.723026 40.89054,13.562516 55.74219,30.703123 6.0301,7.73091 14.13281,18.48009 14.13281,28.73438 0.66,0.33 1.32,0.66 2,1 2.26884,10.22392 2.28955,20.75282 2.2607,31.17384 0.003,1.57452 0.007,3.14904 0.0116,4.72355 0.0102,4.28311 0.008,8.56613 0.004,12.84925 -0.002,4.63605 0.007,9.27207 0.014,13.90811 0.0127,9.06455 0.0145,18.12908 0.0122,27.19363 -0.002,7.37033 -3e-5,14.74065 0.004,22.11098 6e-4,1.05134 0.001,2.10268 0.002,3.18588 10e-4,2.13615 0.002,4.2723 0.004,6.40846 0.0109,20.00186 0.009,40.00371 0.003,60.00558 -0.005,18.28018 0.006,36.5603 0.0251,54.84047 0.0194,18.79718 0.0276,37.59433 0.0239,56.39151 -0.002,10.54247 5.5e-4,21.08489 0.0147,31.62735 0.0119,8.97194 0.0133,17.94381 10e-4,26.91576 -0.006,4.57291 -0.007,9.14569 0.005,13.7186 0.0109,4.19389 0.008,8.38754 -0.006,12.58142 -0.003,1.50921 -3.2e-4,3.01845 0.008,4.52764 0.0626,12.6255 -1.52325,24.71058 -6.51101,36.40047 -0.30003,0.70979 -0.60006,1.41958 -0.90918,2.15088 -8.45776,19.18731 -25.45472,36.18767 -44.96582,44.28662 -0.99,0 -1.98,0 -3,0 -0.33,0.66 -0.66,1.32 -1,2 -12.02577,3.73435 -23.80559,4.57607 -36.30786,4.48775 -1.7697,0.002 -3.5394,0.007 -5.30909,0.0125 -4.80863,0.0108 -9.61691,-0.003 -14.4255,-0.0213 -5.20647,-0.0153 -10.41292,-0.007 -15.6194,-0.002 -10.17578,0.006 -20.35142,-0.009 -30.52717,-0.0307 -11.85904,-0.0248 -23.71804,-0.0276 -35.57709,-0.0294 -21.15889,-0.004 -42.31771,-0.0263 -63.47657,-0.0598 -20.5192,-0.0325 -41.03838,-0.0537 -61.55761,-0.0615 -1.26506,-4.9e-4 -2.53013,-9.7e-4 -3.83353,-10e-4 -5.08545,-0.002 -10.1709,-0.004 -15.25635,-0.006 -19.57883,-0.008 -39.15765,-0.0232 -58.73647,-0.0405 -5.90949,-0.005 -11.81897,-0.0102 -17.72846,-0.0144 -12.41855,-0.009 -24.83709,-0.0207 -37.25562,-0.0416 -5.13339,-0.009 -10.26677,-0.0157 -15.40017,-0.0185 -4.70113,-0.003 -9.402225,-0.01 -14.103338,-0.021 -1.69815,-0.003 -3.3963,-0.005 -5.09445,-0.004 -8.32257,4.5e-4 -16.51785,-0.11153 -24.79132,-1.1476 0,-0.66 0,-1.32 0,-2 -1.03125,-0.18562 -2.0625,-0.37125 -3.125,-0.5625 -11.06341,-2.80509 -20.39811,-9.03325 -28.875,-16.4375 -0.99193,-0.7599 -0.99193,-0.7599 -2.003909,-1.53516 -4.70799,-3.71883 -8.20085,-8.10806 -11.746091,-12.90234 -0.460109,-0.62076 -0.92023,-1.24153 -1.39429,-1.8811 -7.8557095,-10.93274 -7.8557095,-10.93274 -7.8557095,-15.6814 -0.66,-0.33 -1.32,-0.66 -2,-1 -0.78439,-2.56628 -1.45491,-5.07924 -2.0625,-7.6875 -0.17338,-0.70834 -0.34676,-1.41668 -0.52539,-2.14648 -2.27211,-9.42796 -2.73541,-18.6143 -2.95972,-28.27271 -0.0208,-0.86336 -0.0416,-1.72671 -0.0631,-2.61623 -0.74373,-31.94267 -0.59511,-63.90629 -0.62494,-95.85572 -0.004,-3.641 -0.008,-7.282 -0.0118,-10.923 -0.0184,-16.12348 -0.0342,-32.24697 -0.0419,-48.37046 -0.002,-3.9042 -0.004,-7.80841 -0.006,-11.71262 -4.8e-4,-0.96991 -9.6e-4,-1.93981 -0.001,-2.93911 -0.008,-15.77383 -0.0338,-31.54758 -0.0661,-47.32137 -0.0332,-16.29845 -0.0511,-32.59685 -0.0543,-48.89533 -0.002,-9.11043 -0.0107,-18.22075 -0.0365,-27.33115 -0.0218,-7.73738 -0.0297,-15.47463 -0.02,-23.21204 0.005,-3.93416 0.003,-7.86804 -0.0168,-11.80216 -0.0794,-16.83613 -0.0829,-33.56469 4.49028,-49.91412 0.66,-0.33 1.32,-0.66 2,-1 0.34547,-1.99794 0.67669,-3.99835 1,-6 C 15.836463,108.02595 33.248582,91.915812 53.713053,82.585682 64.994192,77.7433 76.152673,75.83491 88.376383,75.631581 c 1.033829,-0.122461 2.06765,-0.244922 3.13281,-0.371094 0.99,-1.485 0.99,-1.485 2,-3 0.99,1.485 0.99,1.485 2,3 0.66,0 1.32,0 2,0 0.0041,-0.703828 0.0082,-1.407656 0.01245,-2.132813 0.219214,-21.493512 1.840675,-39.258008 17.237547,-55.617187 8.19902,-7.7550741 16.94115,-12.2367153 27.75,-15.2500003 0.71285,-0.248789 1.4257,-0.497578 2.16016,-0.753906 17.15757,-5.257738 37.21103,4.100029 50.02596,14.9404563 z m -53.5625,30.1875 c -3.41407,5.515048 -3.91445,10.709325 -3.88037,17.07373 -0.004,0.826833 -0.007,1.653666 -0.011,2.505555 -0.007,1.787463 -0.009,3.574947 -0.008,5.362423 9.7e-4,2.834037 -0.012,5.667699 -0.029,8.501682 -0.0462,8.054811 -0.0709,16.109582 -0.0775,24.164523 -0.005,4.93486 -0.0293,9.86932 -0.0653,14.80405 -0.01,1.87456 -0.0121,3.74917 -0.007,5.62374 0.007,2.62769 -0.0103,5.25421 -0.0328,7.88178 0.008,0.76598 0.0163,1.53195 0.0248,2.32114 -0.10122,6.66676 -2.1734,11.95692 -6.85142,16.76138 -6.13696,3.71072 -11.83278,4.28712 -18.6875,2.625 -5.28151,-2.00261 -8.27299,-5.0704 -11,-10 -1.037148,-3.11144 -1.200322,-5.49468 -1.31641,-8.76172 -0.06284,-1.67739 -0.06284,-1.67739 -0.126953,-3.38867 -0.03932,-1.16725 -0.07863,-2.33449 -0.119141,-3.53711 -0.04318,-1.17885 -0.08637,-2.3577 -0.130859,-3.57227 -0.106153,-2.91329 -0.208203,-5.82667 -0.306641,-8.74023 -1.98,0.495 -1.98,0.495 -4,1 0,-0.33 0,-0.66 0,-1 -15.51848,-0.71716 -27.984519,1.18419 -40,12 -9.27183,9.27183 -13.93994,21.00872 -14.11353,34.09937 1.6e-4,1.48641 0.006,2.97284 0.0159,4.45922 10e-4,0.78916 0.003,1.57831 0.004,2.39138 0.006,2.49588 0.0181,4.99167 0.0309,7.48753 0.005,1.70247 0.01,3.40495 0.0137,5.10742 0.011,4.15173 0.0282,8.30339 0.0488,12.45508 0.495,-0.99 0.495,-0.99 1,-2 0.33,0.66 0.66,1.32 1,2 7.11828,1.37542 14.62973,1.14119 21.85571,1.11353 1.02252,1.4e-4 2.04504,2.9e-4 3.09854,4.4e-4 3.33949,-6.9e-4 6.67893,-0.008 10.01841,-0.0163 2.33361,-0.002 4.66722,-0.003 7.00084,-0.004 6.11309,-0.004 12.22616,-0.0136 18.339244,-0.0247 6.24145,-0.0103 12.48291,-0.0148 18.72437,-0.0198 11.70257,-0.0102 23.40513,-0.026 35.10769,-0.046 99.07139,-0.14917 198.14428,-0.003 378.8552,-0.003 0.0999,-5.60094 0.17197,-11.20135 0.21973,-16.80298 0.0199,-1.89983 0.0471,-3.7996 0.082,-5.69922 0.28292,-15.79789 -0.51176,-28.93377 -11.30176,-41.4978 -2.5514,-2.34326 -2.5514,-2.34326 -5,-4 -0.83531,-0.95906 -0.83531,-0.95906 -1.6875,-1.9375 -7.71132,-6.87767 -17.72561,-9.34938 -27.80859,-9.33594 -1.62696,-0.0203 -3.25392,-0.0411 -4.88086,-0.0625 -2.53205,-0.0226 -5.06381,-0.0391 -7.59595,-0.0449 -2.46656,-0.01 -4.93191,-0.0434 -7.39819,-0.0801 -1.11912,0.008 -1.11912,0.008 -2.26085,0.0153 -5.48809,-0.10144 -9.79316,-1.46724 -14.36806,-4.55435 -5.73625,-6.76583 -5.13994,-14.23657 -5.17578,-22.656253 -0.0232,-2.095062 -0.0473,-4.190114 -0.0723,-6.285156 -0.0351,-3.285064 -0.0645,-6.569751 -0.0779,-9.854981 -0.0155,-3.182909 -0.0557,-6.364739 -0.0999,-9.547363 0.003,-1.467416 0.003,-1.467416 0.006,-2.964478 -0.13289,-7.431505 -2.08918,-11.085432 -7.26735,-16.504442 -4.75935,-3.142964 -8.87923,-3.593585 -14.49219,-2.929688 -5.70597,1.184259 -9.20739,3.495625 -12.57031,8.179688 -2.32225,4.760611 -2.37004,9.277354 -2.34766,14.517334 0.002,1.020749 0.002,1.020749 0.004,2.062119 0.004,1.472637 0.01,2.94527 0.0181,4.41789 0.0128,2.343999 0.0193,4.687941 0.0241,7.031969 0.0133,5.828984 0.0374,11.657914 0.0614,17.486862 0.0199,4.918542 0.0355,9.837059 0.0456,14.755629 0.006,2.28513 0.0189,4.57016 0.0317,6.85526 0.1065,28.14376 0.1065,28.14376 -6.77515,35.18544 -4.28508,3.25329 -8.50673,4.4599 -13.87109,4.05859 -5.0823,-0.83824 -8.90901,-1.86061 -12.44141,-5.80859 -4.33964,-6.94017 -4.64825,-12.92476 -4.75,-21 -0.0445,-1.73443 -0.0445,-1.73443 -0.0898,-3.50391 -0.0702,-2.8321 -0.12316,-5.66339 -0.16016,-8.49609 -0.95637,-0.002 -1.91275,-0.003 -2.8981,-0.004 -23.27766,-0.0366 -46.55518,-0.0961 -69.83272,-0.17946 -11.25688,-0.0398 -22.5137,-0.0722 -33.77064,-0.0871 -9.8123,-0.013 -19.62445,-0.04 -29.43667,-0.0836 -5.19484,-0.0226 -10.38949,-0.0383 -15.58439,-0.0373 -4.89202,7.4e-4 -9.78363,-0.0172 -14.67555,-0.0493 -1.79301,-0.008 -3.58606,-0.0102 -5.37908,-0.005 -2.45434,0.007 -4.90736,-0.0113 -7.36157,-0.0352 -0.7043,0.008 -1.40861,0.0155 -2.13425,0.0235 -6.19009,-0.10628 -11.54497,-2.1609 -15.92666,-6.54258 -1.97815,-3.20319 -2.29309,-5.78834 -2.41406,-9.523441 -0.0386,-1.093447 -0.0772,-2.186894 -0.11694,-3.313476 -0.031,-1.167568 -0.062,-2.335137 -0.094,-3.538086 -0.0591,-1.797759 -0.0591,-1.797759 -0.11939,-3.631836 -0.26029,-8.642717 -0.33105,-17.279446 -0.1311,-25.924316 0.0829,-5.862802 -0.13079,-11.247828 -3.64014,-16.213379 -4.73139,-4.550239 -8.22531,-6.493351 -14.85937,-7.230469 -5.74842,0.594664 -9.91809,2.668091 -14,6.75 z M 40.507812,234.25954 c -0.0458,36.90146 -0.081,73.80291 -0.102129,110.70439 -0.002,4.3583 -0.005,8.7166 -0.008,13.07491 -5.3e-4,0.86764 -10e-4,1.73529 -0.002,2.62923 -0.009,14.04178 -0.0245,28.08354 -0.0429,42.12532 -0.0187,14.41222 -0.0298,28.82444 -0.0339,43.23668 -0.003,8.89038 -0.0114,17.78071 -0.0277,26.67108 -0.0106,6.0996 -0.0138,12.19918 -0.0112,18.29879 10e-4,3.51713 -6.6e-4,7.03418 -0.0114,10.5513 -0.01,3.81949 -0.008,7.63878 -0.002,11.45827 -0.006,1.10314 -0.0117,2.20627 -0.0177,3.34284 0.0553,14.34039 3.20561,27.25993 13.25816,37.90719 13.97491,13.02628 28.49651,14.30726 46.845197,14.2607 1.69624,0.003 3.39247,0.007 5.0887,0.0116 4.63806,0.0103 9.27603,0.008 13.91408,0.004 5.011,-0.002 10.02198,0.007 15.03297,0.014 9.80772,0.0127 19.61542,0.0145 29.42314,0.0122 7.97304,-0.002 15.94607,-3e-5 23.9191,0.004 1.13572,6e-4 2.27144,10e-4 3.44158,0.002 2.30736,10e-4 4.61472,0.002 6.92208,0.004 21.62608,0.0109 43.25215,0.009 64.87824,0.003 19.77555,-0.005 39.55105,0.006 59.32659,0.0251 20.31803,0.0194 40.63604,0.0276 60.95409,0.0239 11.40207,-0.002 22.8041,5.7e-4 34.20616,0.0147 9.70552,0.0119 19.41097,0.0133 29.11648,10e-4 4.94934,-0.006 9.89855,-0.007 14.84787,0.005 4.53566,0.0109 9.07108,0.008 13.60673,-0.006 1.63581,-0.003 3.27163,-2.9e-4 4.90743,0.008 16.43919,0.075 30.52888,-2.53816 42.94456,-14.19851 9.96849,-10.75602 13.09771,-22.2458 12.98576,-36.62735 0.003,-1.21728 0.005,-2.43455 0.008,-3.68871 0.004,-3.35248 -0.005,-6.70441 -0.0203,-10.05682 -0.013,-3.62494 -0.009,-7.24987 -0.006,-10.87483 0.002,-6.27173 -0.008,-12.54337 -0.0247,-18.81508 -0.0244,-9.0677 -0.0322,-18.13535 -0.036,-27.20308 -0.007,-14.71365 -0.0265,-29.42725 -0.0549,-44.14087 -0.0276,-14.28841 -0.0488,-28.5768 -0.0615,-42.86523 -7.8e-4,-0.88153 -0.002,-1.76305 -0.002,-2.67129 -0.004,-4.42257 -0.008,-8.84515 -0.0114,-13.26773 -0.0311,-36.65887 -0.0839,-73.31769 -0.15097,-109.97651 -0.74965,0 -1.4993,0 -2.27167,0 -98.43159,0 -196.86319,0 -492.728326,0 z"
     fill="#50a959"
     id="path1" />
  <path
     d="m 408.75781,285.25954 c 6.1975,3.44955 9.48562,7.97647 12.1875,14.4375 1.22899,7.78355 -0.2857,13.90778 -4.4375,20.5625 -2.10556,2.51879 -4.42044,4.75526 -6.8125,7 -1.26613,1.22469 -2.53048,2.45124 -3.79297,3.67968 -0.59603,0.57718 -1.19206,1.15436 -1.80615,1.74903 -1.83939,1.8196 -3.54589,3.71847 -5.21338,5.69629 -3.42672,4.05292 -7.19841,7.72505 -10.97094,11.45141 -3.35499,3.32973 -6.50146,6.76308 -9.56421,10.36499 -2.79545,3.12781 -5.80162,6.04113 -8.78662,8.98584 -3.29042,3.26319 -6.36111,6.64574 -9.36963,10.16651 -3.80855,4.31223 -8.00258,8.26833 -12.1211,12.28125 -5.61191,5.74879 -10.93695,11.78445 -16.07812,17.95703 -2.06659,2.32219 -4.27376,4.4824 -6.48438,6.66797 -9.84833,9.65781 -9.84833,9.65781 -19.09766,19.87891 -3.2239,3.59462 -6.70115,6.93909 -10.13379,10.333 -3.5494,3.52474 -6.91463,7.1357 -10.15136,10.95215 -2.47142,2.80571 -5.15581,5.38711 -7.82422,8.00391 -1.97383,1.95283 -1.97383,1.95283 -4.16797,4.83203 -0.53625,0.66 -1.0725,1.32 -1.625,2 -0.66,0 -1.32,0 -2,0 -0.37898,0.89332 -0.37898,0.89332 -0.76562,1.80469 -2.60468,4.63236 -7.55314,7.44047 -12.29688,9.57031 -7.39852,1.57415 -12.47125,0.22133 -18.9375,-3.375 -4.08877,-2.81103 -6.79719,-5.9333 -9.875,-9.8125 -4.84056,-6.09861 -10.29711,-11.47413 -15.89209,-16.88013 -0.67627,-0.65959 -1.35255,-1.31919 -2.04932,-1.99878 -0.61303,-0.58982 -1.22606,-1.17965 -1.85766,-1.78735 -1.32593,-1.52124 -1.32593,-1.52124 -1.32593,-3.52124 -0.66,0 -1.32,0 -2,0 -1.30469,-1.29297 -1.30469,-1.29297 -2.875,-3.1875 -3.27476,-3.84903 -6.63517,-7.59978 -10.0625,-11.3125 -0.52022,-0.5638 -1.04043,-1.12761 -1.57642,-1.7085 -3.47303,-3.74488 -7.0396,-7.37422 -10.68139,-10.95556 -2.52242,-2.56609 -4.85526,-5.27987 -7.19531,-8.01172 -1.45474,-1.64894 -2.95991,-3.17912 -4.54688,-4.69922 -2.0625,-2.125 -2.0625,-2.125 -2.0625,-4.125 -1.485,-0.495 -1.485,-0.495 -3,-1 -1.57812,-1.56641 -1.57812,-1.56641 -3.25,-3.5625 -1.84928,-2.19798 -3.68828,-4.37186 -5.65625,-6.46484 -5.03259,-5.38445 -7.58104,-10.01746 -8.53125,-17.34766 0.88815,-7.35897 2.94852,-12.87844 8.8125,-17.625 5.92211,-4.10587 11.35362,-5.91233 18.625,-5 2.77604,0.78234 5.37967,1.79993 8,3 0.67805,0.29777 1.35609,0.59554 2.05469,0.90234 2.14518,1.21044 3.26607,2.38226 4.82031,4.28516 3.5891,4.24166 7.33256,8.31596 11.125,12.375 0.58121,0.62479 1.16241,1.24958 1.76123,1.89331 2.93877,3.14467 5.91479,6.23806 8.96924,9.27075 2.30109,2.28538 4.4983,4.59782 6.58203,7.08594 2.76368,3.21084 5.6737,6.21017 8.6875,9.1875 2.93118,2.89592 5.76403,5.80243 8.4375,8.9375 3.81376,4.47068 8.00953,8.53966 12.20703,12.64453 2.35547,2.41797 2.35547,2.41797 4.35547,5.41797 3.33647,-1.41636 5.15544,-3.08172 7.4375,-5.875 2.64731,-3.1363 5.35588,-5.55971 8.5625,-8.125 1.76871,-1.92839 3.46985,-3.90173 5.15625,-5.90234 2.17762,-2.47751 4.50972,-4.76712 6.84375,-7.09766 1.75908,-1.90834 3.50871,-3.82542 5.25,-5.75 4.11566,-4.52806 8.35666,-8.8869 12.71484,-13.1836 1.87161,-1.90035 3.61834,-3.84955 5.34766,-5.8789 3.66295,-4.28644 7.65895,-8.2138 11.68872,-12.15161 2.85955,-2.74175 2.85955,-2.74175 4.99878,-6.03589 0.66,0 1.32,0 2,0 0.25902,-0.58572 0.51804,-1.17144 0.78491,-1.77491 1.30511,-2.38994 2.70849,-3.93228 4.6565,-5.82666 0.9987,-0.98226 0.9987,-0.98226 2.01758,-1.98437 1.04124,-1.00934 1.04124,-1.00934 2.10351,-2.03906 1.37849,-1.34412 2.7549,-2.69038 4.12891,-4.03907 0.61045,-0.59248 1.2209,-1.18497 1.84985,-1.79541 1.55685,-1.49486 1.55685,-1.49486 2.45874,-3.54052 0.66,0 1.32,0 2,0 0.2127,-0.54141 0.42539,-1.08282 0.64453,-1.64063 1.84566,-3.21262 4.39511,-5.56488 7.04297,-8.10937 4.03643,-3.95032 7.87775,-7.95353 11.53907,-12.25782 2.96615,-3.33202 6.18456,-6.41132 9.35937,-9.54296 2.11595,-2.14677 4.09181,-4.33825 6.03906,-6.63672 9.05676,-10.50244 19.65276,-18.03173 33.625,-11.8125 z"
     fill="#50a959"
     id="path2" />
  <path
     d="m 401.0747,194.11428 c 1.37222,-0.003 2.74443,-0.006 4.11664,-0.0102 3.71055,-0.009 7.42108,-0.0112 11.13164,-0.0118 2.31992,-7.1e-4 4.63984,-0.003 6.95976,-0.005 8.09765,-0.009 16.19528,-0.0133 24.29294,-0.0126 7.54304,6e-4 15.08601,-0.01 22.62904,-0.0258 6.48424,-0.0131 12.96847,-0.0184 19.45272,-0.0178 3.86944,2.6e-4 7.73882,-0.003 11.60824,-0.0132 3.63619,-0.01 7.27225,-0.01 10.90844,-0.002 1.96826,0.002 3.93652,-0.007 5.90476,-0.0154 1.17474,0.004 2.34948,0.008 3.55982,0.0127 1.0187,-5.4e-4 2.03741,-0.001 3.08699,-0.002 2.93607,0.26266 5.11757,1.0191 7.78212,2.24889 0,0.33 0,0.66 0,1 -50.16,0 -100.32,0 -152,0 0,-0.66 0,-1.32 0,-2 6.836,-1.2654 13.63248,-1.14773 20.56689,-1.14526 z"
     fill="#3e9542"
     id="path3" />
  <path
     d="m 164.50781,194.25954 c 2.14717,0.0785 4.29649,0.10786 6.44507,0.0977 1.25828,-0.003 2.51656,-0.007 3.81297,-0.01 0.99739,-0.006 0.99739,-0.006 2.01493,-0.0125 2.09852,-0.0129 4.19697,-0.0193 6.29553,-0.0241 5.2109,-0.0133 10.42175,-0.0375 15.63261,-0.0614 4.40958,-0.0198 8.81913,-0.0354 13.22873,-0.0456 2.05777,-0.006 4.11544,-0.0189 6.17317,-0.0317 1.89215,-0.005 1.89215,-0.005 3.82253,-0.01 1.10331,-0.005 2.20662,-0.0105 3.34337,-0.0159 3.46861,0.12187 6.80599,0.56591 10.23109,1.11353 0.33,-0.66 0.66,-1.32 1,-2 0,0.66 0,1.32 0,2 1.11633,-0.15985 2.23266,-0.31969 3.38281,-0.48438 4.83468,-0.60087 9.62435,-0.73539 14.49219,-0.76562 0.85336,-0.0206 1.70672,-0.0412 2.58594,-0.0625 0.81469,-0.005 1.62937,-0.0103 2.46875,-0.0156 0.7346,-0.009 1.46921,-0.0187 2.22607,-0.0283 0.6086,0.11763 1.2172,0.23526 1.84424,0.35645 0.99,1.485 0.99,1.485 2,3 -36.63,0 -73.26,0 -111,0 -0.33,-0.66 -0.66,-1.32 -1,-2 4.19151,-2.09576 6.47084,-1.79352 11,-1 z"
     fill="#459a49"
     id="path4" />
  <path
     d="m 39.507812,152.25954 c 0.33,0 0.66,0 1,0 -0.329999,14.19 -0.659999,28.38 -1,43 4.62,-0.33 9.240001,-0.66 14,-1 3.795488,-0.0954 7.572582,-0.16344 11.367188,-0.16797 1.506647,-0.005 1.506647,-0.005 3.043732,-0.0101 2.095443,-0.005 4.190896,-0.007 6.286346,-0.007 3.192189,-0.002 6.384043,-0.0205 9.576172,-0.0393 2.052083,-0.003 4.104165,-0.005 6.15625,-0.006 1.414287,-0.0108 1.414287,-0.0108 2.857147,-0.0218 5.580636,0.0192 10.355733,0.67101 15.713163,2.25224 0,0.33 0,0.66 0,1 -8.979206,0.0231 -17.958403,0.0409 -26.937633,0.0518 -4.168993,0.005 -8.337964,0.0123 -12.506945,0.0236 -4.019996,0.0108 -8.039974,0.0168 -12.059984,0.0194 -1.537065,0.002 -3.074129,0.005 -4.611187,0.0109 -2.145604,0.007 -4.291125,0.008 -6.436739,0.008 -1.223557,0.002 -2.447114,0.004 -3.707748,0.007 -2.739762,-0.12023 -2.739762,-0.12023 -3.739762,-1.12023 -0.101177,-2.9103 -0.139685,-5.79636 -0.132812,-8.70703 -9.57e-4,-0.87694 -0.0019,-1.75389 -0.0029,-2.6574 -6.82e-4,-1.86038 0.0012,-3.72076 0.0053,-5.58113 0.0053,-2.84437 6.6e-5,-5.68859 -0.0063,-8.53296 6.61e-4,-1.80534 0.0019,-3.61068 0.0039,-5.41601 -0.002,-0.85117 -0.004,-1.70234 -0.0061,-2.5793 0.0031,-0.7973 0.0063,-1.5946 0.0095,-2.41607 7.96e-4,-0.69869 0.0016,-1.39739 0.0024,-2.11726 0.133824,-2.10021 0.556429,-3.97106 1.126982,-5.99284 z"
     fill="#459a49"
     id="path5" />
  <path
     d="m 315.50781,193.25954 c 0.495,0.99 0.495,0.99 1,2 1.13438,-0.17403 2.26875,-0.34805 3.4375,-0.52735 4.58536,-0.57317 8.96687,-0.38162 13.5625,-0.0352 1.16209,0.0783 1.16209,0.0783 2.34766,0.1582 1.88459,0.12797 3.76855,0.26515 5.65234,0.4043 -0.33,0.66 -0.66,1.32 -1,2 -24.42,0 -48.84,0 -74,0 4.47488,-4.47488 13.34432,-3.04649 19.39899,-3.06568 3.90883,0.005 7.81733,0.0322 11.72601,0.0657 3.16927,0.0265 6.33848,0.0465 9.50781,0.0625 1.08888,0.0124 1.08888,0.0124 2.19974,0.0251 1.72271,0.009 3.44555,-0.0343 5.16745,-0.0876 0.33,-0.33 0.66,-0.66 1,-1 z"
     fill="#56a356"
     id="path6" />
  <path
     d="m 486.51172,193.99391 c 1.15604,-0.002 2.31209,-0.004 3.50316,-0.006 2.43832,-0.001 4.87665,0.002 7.31496,0.0107 3.73071,0.0107 7.46095,9e-5 11.19165,-0.0127 2.37174,0.001 4.74349,0.004 7.11523,0.008 1.67202,-0.006 1.67202,-0.006 3.37783,-0.0123 1.56203,0.009 1.56203,0.009 3.15562,0.0191 1.36851,0.002 1.36851,0.002 2.76466,0.005 2.82813,0.27916 4.99597,1.08367 7.57299,2.25397 0,0.33 0,0.66 0,1 -21.12,0 -42.24,0 -64,0 0,-0.33 0,-0.66 0,-1 5.8987,-2.5784 11.69095,-2.28859 18.0039,-2.26562 z"
     fill="#459b49"
     id="path7" />
  <path
     d="m 173.50781,51.259537 c 2.47381,2.473812 2.2577,3.206219 2.28711,6.614013 0.0134,0.958272 0.0268,1.916544 0.0406,2.903855 0.005,1.039533 0.0106,2.079067 0.016,3.150101 0.0146,1.068174 0.0292,2.136349 0.0443,3.236892 0.0466,3.427508 0.0807,6.854958 0.11194,10.282639 0.0412,4.493701 0.095,8.987001 0.15625,13.480469 0.005,1.029412 0.0106,2.058824 0.016,3.11943 0.0751,5.452843 0.52044,10.056234 2.32776,15.212604 -3,-1 -3,-1 -5,-4 -0.33471,-2.39063 -0.33471,-2.39063 -0.44922,-5.25 -0.0439,-1.071456 -0.0878,-2.142908 -0.13305,-3.246829 -0.0521,-1.734071 -0.0521,-1.734071 -0.10523,-3.503174 -0.0405,-1.185051 -0.0811,-2.370103 -0.1228,-3.591064 -0.35867,-12.823659 0.13777,-25.603277 0.8103,-38.408936 z"
     fill="#4ca151"
     id="path8" />
  <path
     d="m 535.50781,156.25954 c 3,3 3,3 3.34058,6.73706 -4.8e-4,1.54996 -0.0174,3.09998 -0.0476,4.64966 -0.004,0.817 -0.008,1.63401 -0.0129,2.47578 -0.0168,2.60867 -0.0544,5.21656 -0.0926,7.825 -0.015,1.76887 -0.0287,3.53775 -0.041,5.30664 -0.0331,4.33558 -0.0849,8.67059 -0.14649,13.00586 -1.98,0.495 -1.98,0.495 -4,1 0.33,-13.53 0.66,-27.06 1,-41 z"
     fill="#5dae62"
     id="path9" />
  <path
     d="m 286.20971,194.74807 c 3.58062,0.55528 7.04368,0.72312 10.66529,0.82788 0.67958,0.0208 1.35917,0.0416 2.05935,0.063 2.14939,0.0649 4.2989,0.12408 6.44846,0.18312 1.46616,0.0433 2.9323,0.0869 4.39844,0.13086 3.5754,0.10649 7.15093,0.20794 10.72656,0.30664 0,0.33 0,0.66 0,1 -17.82,0 -35.64,0 -54,0 4.60954,-4.60954 13.65475,-3.60484 19.7019,-2.51147 z"
     fill="#3e9743"
     id="path10" />
  <path
     d="m 380.50781,293.25954 c 0,4.19605 -2.20743,6.12629 -5,9 -1.92952,1.71558 -3.89559,3.38309 -5.86328,5.05468 -3.69156,3.36088 -6.90148,7.1508 -10.13672,10.94532 -0.66,-0.33 -1.32,-0.66 -2,-1 0.43313,-0.39188 0.86625,-0.78375 1.3125,-1.1875 1.77327,-1.75338 1.77327,-1.75338 2.875,-4 2.19412,-3.40467 4.85012,-5.93684 7.75,-8.7461 2.43217,-2.43677 4.59742,-5.0258 6.73828,-7.71875 1.32422,-1.34765 1.32422,-1.34765 4.32422,-2.34765 z"
     fill="#4fa454"
     id="path11" />
  <path
     d="m 13.507813,564.25954 c 2.731964,2.64229 5.13933,5.34969 7.437499,8.375 4.550245,6.64828 4.550245,6.64828 10.5625,11.625 0,0.66 0,1.32 0,2 0.639375,0.28875 1.278751,0.5775 1.9375,0.875 2.0625,1.125 2.0625,1.125 3.0625,3.125 -8.365445,-1.44426 -13.893475,-9.82793 -18.5625,-16.3125 -0.441665,-0.61062 -0.88333,-1.22123 -1.338378,-1.85035 -3.099121,-4.44905 -3.099121,-4.44905 -3.099121,-7.83715 z"
     fill="#50a053"
     id="path12" />
  <path
     d="m 355.82031,194.13454 c 1.08185,-0.006 1.08185,-0.006 2.18555,-0.0117 4.91474,0.009 9.63616,0.44396 14.50195,1.13672 0,0.66 0,1.32 0,2 -9.9,0 -19.8,0 -30,0 0,-0.66 0,-1.32 0,-2 4.43411,-1.10197 8.77273,-1.14896 13.3125,-1.125 z"
     fill="#459b48"
     id="path13" />
  <path
     d="m 408.50781,142.25954 c 0.33,0 0.66,0 1,0 0.28986,3.00723 0.38394,4.49047 -1.46875,6.94922 -5.29666,4.53271 -9.69027,7.29946 -16.8125,6.93359 -1.91594,-0.22263 -3.81995,-0.54374 -5.71875,-0.88281 -0.33,-0.99 -0.66,-1.98 -1,-3 0.95262,0.0348 1.90524,0.0696 2.88672,0.10547 1.25426,0.0271 2.50852,0.0541 3.80078,0.082 1.24137,0.0348 2.48274,0.0696 3.76172,0.10546 5.07029,-0.41834 7.49395,-2.08935 10.80078,-5.85546 1.7437,-2.29293 1.7437,-2.29293 2.75,-4.4375 z"
     fill="#4ea051"
     id="path14" />
  <path
     d="m 132.32031,194.07204 c 0.76248,-0.0122 1.52496,-0.0245 2.31055,-0.0371 1.96041,-0.005 3.9204,0.10167 5.87695,0.22461 0.66,0.66 1.32,1.32 2,2 -1,1 -1,1 -3.68384,1.11352 -1.16781,-0.005 -2.33562,-0.0105 -3.53881,-0.0159 -1.26006,-0.003 -2.52012,-0.006 -3.81836,-0.01 -1.3405,-0.008 -2.68099,-0.0168 -4.02149,-0.0254 -1.3444,-0.005 -2.6888,-0.01 -4.0332,-0.0137 -3.30148,-0.0118 -6.60287,-0.0283 -9.9043,-0.0488 5.55311,-3.70208 12.32569,-3.18188 18.8125,-3.1875 z"
     fill="#3f9644"
     id="path15" />
  <path
     d="m 52.507812,85.259537 c 0,0.66 0,1.32 0,2 -1.32,0 -2.64,0 -4,0 0,0.66 0,1.32 0,2 -1.763437,0.804375 -1.763437,0.804375 -3.5625,1.625 -4.406579,2.183652 -7.865865,5.026593 -11.4375,8.375 -0.659999,-0.33 -1.32,-0.66 -2,-1 4.636685,-6.789432 12.585895,-13 21,-13 z"
     fill="#4ca050"
     id="path16" />
  <path
     d="m 301.50781,376.25954 c 0.66,0.33 1.32,0.66 2,1 -10.18906,11.70615 -10.18906,11.70615 -17,16 0.43587,-4.37942 3.36542,-6.73889 6.375,-9.625 0.495,-0.48985 0.99,-0.97969 1.5,-1.48438 2.27902,-2.23027 4.46381,-4.1165 7.125,-5.89062 z"
     fill="#4ca250"
     id="path17" />
  <path
     d="m 119.50781,13.259537 c 2.0625,0.4375 2.0625,0.4375 4,1 -0.66386,0.568476 -1.32773,1.136953 -2.01172,1.722656 -5.07132,4.43463 -9.35997,8.592988 -12.98828,14.277344 -0.83594,-1.613281 -0.83594,-1.613281 -1,-4 1.72632,-2.263193 3.38914,-4.179843 5.375,-6.1875 0.52078,-0.545918 1.04156,-1.091836 1.57813,-1.654297 1.66312,-1.738519 3.3456,-3.456932 5.04687,-5.158203 z"
     fill="#4da151"
     id="path18" />
  <path
     d="m 374.50781,55.259537 c 0.66,0.33 1.32,0.66 2,1 0,6.93 0,13.86 0,21 -0.66,0.33 -1.32,0.66 -2,1 -0.66,-0.66 -1.32,-1.32 -2,-2 0.66,0 1.32,0 2,0 0,-6.93 0,-13.86 0,-21 z"
     fill="#429b48"
     id="path19" />
  <path
     d="m 195.50781,370.25954 c 4.07376,1.6101 6.76507,4.53822 9.75,7.625 0.5066,0.51562 1.01321,1.03125 1.53516,1.5625 1.24288,1.26633 2.4795,2.53881 3.71484,3.8125 -0.33,0.99 -0.66,1.98 -1,3 -2.34138,-2.28357 -4.67167,-4.57814 -7,-6.875 -1.0016,-0.97647 -1.0016,-0.97647 -2.02344,-1.97266 -0.63164,-0.62519 -1.26328,-1.25039 -1.91406,-1.89453 -0.58652,-0.57605 -1.17304,-1.1521 -1.77734,-1.74561 -1.28516,-1.5122 -1.28516,-1.5122 -1.28516,-3.5122 z"
     fill="#4ea251"
     id="path20" />
  <path
     d="m 471.50781,21.259537 c 6.45322,3.22661 9.19695,8.489359 12,15 0,0.99 0,1.98 0,3 -0.66,0 -1.32,0 -2,0 -0.30293,-0.652266 -0.60586,-1.304531 -0.91797,-1.976563 -2.55503,-5.330186 -5.20134,-9.588367 -9.08203,-14.023437 0,-0.66 0,-1.32 0,-2 z"
     fill="#4fa252"
     id="path21" />
  <path
     d="m 539.50781,588.25954 c 0.66,0 1.32,0 2,0 -1.50598,3.99528 -3.82931,5.55486 -7.375,7.8125 -0.95648,0.62519 -1.91297,1.25039 -2.89844,1.89453 -2.72656,1.29297 -2.72656,1.29297 -5.07812,0.99219 -0.54398,-0.23075 -1.08797,-0.46149 -1.64844,-0.69922 0.99903,-0.63809 1.99805,-1.27618 3.02735,-1.9336 1.30342,-0.83457 2.60681,-1.66921 3.91015,-2.5039 0.65936,-0.42088 1.31871,-0.84176 1.99805,-1.27539 3.19574,-1.93106 3.19574,-1.93106 6.06445,-4.28711 z"
     fill="#4ea051"
     id="path22" />
  <path
     d="m 341.50781,334.25954 c 0.33,0.66 0.66,1.32 1,2 -0.66,0 -1.32,0 -2,0 0,0.66 0,1.32 0,2 -0.66,0 -1.32,0 -2,0 -0.22687,0.55687 -0.45375,1.11375 -0.6875,1.6875 -1.99335,3.51209 -4.6737,6.4931 -8.3125,8.3125 0.56991,-3.59358 1.86383,-5.1725 4.5,-7.625 2.61807,-2.41111 2.61807,-2.41111 4.5,-5.375 0.99,-0.33 1.98,-0.66 3,-1 z"
     fill="#499f4d"
     id="path23" />
  <path
     d="m 369.50781,303.25954 c 0.66,0.66 1.32,1.32 2,2 -0.4473,0.4357 -0.89461,0.8714 -1.35547,1.32031 -3.78974,3.73318 -7.30912,7.5357 -10.64453,11.67969 -0.66,-0.33 -1.32,-0.66 -2,-1 0.43313,-0.39188 0.86625,-0.78375 1.3125,-1.1875 1.78575,-1.7779 1.78575,-1.7779 3,-4.125 2.16162,-3.44258 4.75038,-5.88092 7.6875,-8.6875 z"
     fill="#499e4d"
     id="path24" />
  <path
     d="m 100.50781,137.25954 c 0.33,0 0.66,0 1,0 0.22688,1.21687 0.45375,2.43375 0.6875,3.6875 1.048,4.29069 2.96744,6.39629 6.3125,9.3125 0.33,0.66 0.66,1.32 1,2 -2.7319,-0.0781 -4.45762,-0.49484 -6.48047,-2.37891 -2.76702,-3.46459 -3.549922,-4.98282 -3.332028,-9.55859 0.268125,-1.01063 0.536248,-2.02125 0.812498,-3.0625 z"
     fill="#4fa151"
     id="path25" />
  <path
     d="m 438.50781,39.259537 c 2.77861,1.642336 4.88453,3.574065 7,6 -0.99,0.33 -1.98,0.66 -3,1 -0.70125,-0.61875 -1.4025,-1.2375 -2.125,-1.875 -4.91175,-3.630426 -10.90987,-3.317424 -16.875,-3.125 4.78561,-2.779466 9.60827,-2.911278 15,-2 z"
     fill="#5cab60"
     id="path26" />
  <path
     d="m 408.50781,8.2595367 c -0.75926,0.4705079 -1.51851,0.9410157 -2.30078,1.4257812 -0.99387,0.6226171 -1.98773,1.2452341 -3.01172,1.8867191 -0.98613,0.614883 -1.97226,1.229765 -2.98828,1.863281 -2.20094,1.487465 -3.93251,2.864557 -5.69922,4.824219 -0.66,-0.33 -1.32,-0.66 -2,-1 3.93296,-5.24394 8.81334,-11.4060371 16,-9.0000003 z"
     fill="#499d4d"
     id="path27" />
  <path
     d="m 393.50781,283.25954 c 7.96475,-0.76259 13.16715,0.92936 20,5 -3.71875,1.11718 -3.71875,1.11718 -6.25,0.0625 -0.5775,-0.35063 -1.155,-0.70125 -1.75,-1.0625 0,-0.66 0,-1.32 0,-2 -1.65,0.33 -3.3,0.66 -5,1 0,-0.66 0,-1.32 0,-2 -2.31,0 -4.62,0 -7,0 0,-0.33 0,-0.66 0,-1 z"
     fill="#63b166"
     id="path28" />
  <path
     d="m 341.50781,195.25954 c -0.33,0.66 -0.66,1.32 -1,2 -5.28,0 -10.56,0 -16,0 0,-0.66 0,-1.32 0,-2 5.86854,-1.1482 11.08853,-0.77313 17,0 z"
     fill="#3c9542"
     id="path29" />
  <path
     d="m 283.50781,194.25954 c 0.33,0.66 0.66,1.32 1,2 -6.02596,1.07128 -11.88909,1.09945 -18,1 4.35453,-4.35453 11.22898,-3.10086 17,-3 z"
     fill="#499d4c"
     id="path30" />
  <path
     d="m 5.5078125,544.25954 c 1.6817866,2.52268 2.9010674,4.81091 4.125,7.5625 0.3532031,0.78504 0.7064065,1.57007 1.0703125,2.3789 0.804688,2.0586 0.804688,2.0586 0.804688,4.0586 -0.99,0 -1.9800005,0 -3.0000005,0 0,-0.66 0,-1.32 0,-2 -0.66,-0.33 -1.32,-0.66 -2,-1 -0.4140625,-2.50391 -0.4140625,-2.50391 -0.625,-5.5625 -0.074766,-1.01192 -0.1495313,-2.02383 -0.2265625,-3.06641 -0.048984,-0.78246 -0.097969,-1.56492 -0.1484375,-2.37109 z"
     fill="#4da050"
     id="path31" />
  <path
     d="m 126.50781,153.25954 c -2.39763,2.39763 -3.33273,2.3428 -6.625,2.625 -0.81726,0.0748 -1.63453,0.14953 -2.47656,0.22656 -0.62648,0.049 -1.25297,0.098 -1.89844,0.14844 0,-0.66 0,-1.32 0,-2 -0.99,-0.33 -1.98,-0.66 -3,-1 1.76999,-0.19533 3.54105,-0.38099 5.3125,-0.5625 0.98614,-0.10442 1.97227,-0.20883 2.98828,-0.31641 2.69922,-0.12109 2.69922,-0.12109 5.69922,0.87891 z"
     fill="#4fa151"
     id="path32" />
  <path
     d="m 242.50781,420.25954 c 1.33898,0.95043 2.67106,1.91059 4,2.875 1.11375,0.8005 1.11375,0.8005 2.25,1.61718 0.5775,0.49758 1.155,0.99516 1.75,1.50782 0,0.66 0,1.32 0,2 1.65,-0.66 3.3,-1.32 5,-2 -0.33,1.32 -0.66,2.64 -1,4 -5.01441,-0.15196 -7.33355,-2.92702 -10.64453,-6.3086 -1.35547,-1.6914 -1.35547,-1.6914 -1.35547,-3.6914 z"
     fill="#429b46"
     id="path33" />
  <path
     d="m 202.50781,29.259537 c 3,1 3,1 4.16797,2.636719 2.1392,4.302978 3.32465,7.437135 2.83203,12.363281 -2.24845,-2.248451 -2.92379,-3.988989 -4.0625,-6.9375 -0.3416,-0.875274 -0.6832,-1.750547 -1.03515,-2.652344 -0.67027,-1.790265 -1.29784,-3.596632 -1.90235,-5.410156 z"
     fill="#4a9e4f"
     id="path34" />
  <path
     d="m 335.50781,401.25954 c 0.33,0.99 0.66,1.98 1,3 -1.07422,1.78906 -1.07422,1.78906 -2.6875,3.625 -0.51949,0.61101 -1.03898,1.22203 -1.57422,1.85156 -1.91932,1.6821 -3.24663,2.12173 -5.73828,2.52344 0,-0.66 0,-1.32 0,-2 0.66,0 1.32,0 2,0 0,-0.66 0,-1.32 0,-2 0.66,0 1.32,0 2,0 0.26813,-0.59813 0.53625,-1.19625 0.8125,-1.8125 1.17244,-2.15975 2.3812,-3.54541 4.1875,-5.1875 z"
     fill="#4c9f4d"
     id="path35" />
  <path
     d="m 77.507812,116.25954 c -0.989999,0 -1.98,0 -3,0 0,0.66 0,1.32 0,2 -1.43344,0.5319 -2.871953,1.05015 -4.3125,1.5625 -1.200761,0.43506 -1.200761,0.43506 -2.425781,0.8789 -2.261719,0.5586 -2.261719,0.5586 -5.261719,-0.4414 1.269554,-0.64835 2.540697,-1.29358 3.8125,-1.9375 0.707695,-0.35965 1.415391,-0.7193 2.144532,-1.08985 3.495798,-1.66434 5.370883,-2.11227 9.042968,-0.97265 z"
     fill="#4a9e4e"
     id="path36" />
  <path
     d="m 450.50781,105.25954 c 0.68836,0.59748 0.68836,0.59748 1.39063,1.20703 3.13209,2.70439 6.24815,5.37288 9.60937,7.79297 -3.81247,-0.29327 -6.32933,-0.5013 -9.4375,-2.8125 -1.5625,-2.1875 -1.5625,-2.1875 -1.5625,-6.1875 z"
     fill="#4c9e4e"
     id="path37" />
  <path
     d="m 222.50781,460.25954 c 1.132,0.90801 2.25533,1.82684 3.375,2.75 0.62649,0.51047 1.25297,1.02093 1.89844,1.54687 1.80969,1.78512 2.72774,3.38262 3.72656,5.70313 -3.45462,-0.2559 -4.27381,-1.28626 -6.75,-3.875 -2.25,-3.125 -2.25,-3.125 -2.25,-6.125 z"
     fill="#4ea050"
     id="path38" />
  <path
     d="m 13.507813,564.25954 c 3.670339,3.27709 5.692811,6.71522 7.999999,11 -4.210732,-1.50384 -5.832371,-4.20665 -7.999999,-8 0,-0.99 0,-1.98 0,-3 z"
     fill="#499b4b"
     id="path39" />
  <path
     d="m 567.50781,550.25954 c 0.33,0 0.66,0 1,0 -0.50229,4.26947 -0.97149,8.16836 -3,12 -0.99,0.33 -1.98,0.66 -3,1 1.41808,-4.47239 3.11305,-8.71147 5,-13 z"
     fill="#499c4a"
     id="path40" />
  <path
     d="m 558.50781,114.25954 c 0.99,0 1.98,0 3,0 3.22266,5.07812 3.22266,5.07812 4,7 -0.33,1.32 -0.66,2.64 -1,4 -1.98,-3.63 -3.96,-7.26 -6,-11 z"
     fill="#499e4c"
     id="path41" />
  <path
     d="m 418.19531,3.1970367 c 1.21237,0.013535 1.21237,0.013535 2.44922,0.027344 0.92233,0.017402 0.92233,0.017402 1.86328,0.035156 -2.88628,1.5755403 -5.53342,2.4627637 -8.75,3.125 -1.19883,0.2513672 -1.19883,0.2513672 -2.42187,0.5078125 -0.60328,0.1211719 -1.20657,0.2423438 -1.82813,0.3671875 0.33,-0.99 0.66,-1.98 1,-3 2.88212,-0.9607043 4.6985,-1.1058188 7.6875,-1.0625 z"
     fill="#4c9f4f"
     id="path42" />
  <path
     d="m 300.50781,438.25954 c 0.33,0.99 0.66,1.98 1,3 -0.95207,1.00596 -1.91187,2.00461 -2.875,3 -0.53367,0.55687 -1.06734,1.11375 -1.61719,1.6875 -1.50781,1.3125 -1.50781,1.3125 -3.50781,1.3125 1.55501,-3.81685 4.03596,-6.19196 7,-9 z"
     fill="#4ca04e"
     id="path43" />
  <path
     d="m 283.50781,395.25954 c 0.33,0.99 0.66,1.98 1,3 -1.6234,1.70884 -3.29319,3.37446 -5,5 -0.66,0 -1.32,0 -2,0 1.26942,-3.91403 2.51168,-5.79073 6,-8 z"
     fill="#449c4a"
     id="path44" />
  <path
     d="m 165.50781,351.25954 c 5.21979,-0.18 9.07263,0.029 14,2 0,0.66 0,1.32 0,2 -5.875,-0.875 -5.875,-0.875 -7,-2 -2.32818,-0.36761 -4.66184,-0.70242 -7,-1 0,-0.33 0,-0.66 0,-1 z"
     fill="#5daa5e"
     id="path45" />
  <path
     d="m 479.50781,194.25954 c 0,0.66 0,1.32 0,2 0.66,0.33 1.32,0.66 2,1 -4.29,0 -8.58,0 -13,0 0,-0.33 0,-0.66 0,-1 3.82321,-1.42259 6.91282,-2.24043 11,-2 z"
     fill="#479c4a"
     id="path46" />
  <path
     d="m 106.50781,194.25954 c 3.3,0 6.6,0 10,0 0,0.66 0,1.32 0,2 -7.75,1.125 -7.75,1.125 -10,0 0,-0.66 0,-1.32 0,-2 z"
     fill="#53a254"
     id="path47" />
  <path
     d="m 571.50781,533.25954 c 0.33,0 0.66,0 1,0 0,3.63 0,7.26 0,11 -0.66,0 -1.32,0 -2,0 -0.33,0.66 -0.66,1.32 -1,2 0.51959,-4.37934 1.05676,-8.68804 2,-13 z"
     fill="#439946"
     id="path48" />
  <path
     d="m 267.50781,411.25954 c 0.66,0.33 1.32,0.66 2,1 -2.31,2.64 -4.62,5.28 -7,8 -0.33,-1.32 -0.66,-2.64 -1,-4 1.98,-1.65 3.96,-3.3 6,-5 z"
     fill="#449b48"
     id="path49" />
  <path
     d="m 212.50781,388.25954 c 2.76263,0.38105 3.84144,0.83597 5.8125,2.875 0.39188,0.70125 0.78375,1.4025 1.1875,2.125 -0.33,0.99 -0.66,1.98 -1,3 -1.00596,-0.95208 -2.00461,-1.91188 -3,-2.875 -0.55687,-0.53368 -1.11375,-1.06735 -1.6875,-1.61719 -1.3125,-1.50781 -1.3125,-1.50781 -1.3125,-3.50781 z"
     fill="#49a04e"
     id="path50" />
  <path
     d="m 350.50781,323.25954 c 0.99,0.33 1.98,0.66 3,1 -2.31,2.31 -4.62,4.62 -7,7 -0.33,-0.99 -0.66,-1.98 -1,-3 1.65,-1.65 3.3,-3.3 5,-5 z"
     fill="#4da051"
     id="path51" />
  <path
     d="m 151.50781,194.25954 c 0.33,0.99 0.66,1.98 1,3 -2.97,0 -5.94,0 -9,0 0,-0.66 0,-1.32 0,-2 2.92825,-0.97609 4.95614,-1.08227 8,-1 z"
     fill="#469a49"
     id="path52" />
  <path
     d="m 571.50781,139.25954 c 0.33,0 0.66,0 1,0 0.33,3.63 0.66,7.26 1,11 -0.33,-0.99 -0.66,-1.98 -1,-3 -0.99,-0.33 -1.98,-0.66 -3,-1 0.57585,-2.38564 1.22228,-4.66683 2,-7 z"
     fill="#5fad64"
     id="path53" />
  <path
     d="m 54.507812,125.25954 c 0.66,0 1.32,0 2,0 -1.371545,2.95409 -2.988637,5.44008 -5,8 -0.99,-0.33 -1.98,-0.66 -3,-1 0.951172,-1.17252 1.911171,-2.33787 2.875,-3.5 0.533672,-0.64969 1.067344,-1.29938 1.617188,-1.96875 0.746367,-0.75797 0.746367,-0.75797 1.507812,-1.53125 z"
     fill="#4b9e4e"
     id="path54" />
  <path
     d="m 523.50781,554.25954 c 0,0.99 0,1.98 0,3 -1.53125,1.38672 -1.53125,1.38672 -3.5,2.6875 -0.97453,0.65549 -0.97453,0.65549 -1.96875,1.32422 -0.50531,0.32613 -1.01062,0.65226 -1.53125,0.98828 -0.66,-0.33 -1.32,-0.66 -2,-1 2.25988,-3.38982 3.33531,-3.62575 7,-5 0.66,-0.66 1.32,-1.32 2,-2 z"
     fill="#459d49"
     id="path55" />
  <path
     d="m 321.50781,355.25954 c 0,3 0,3 -1.3125,4.38672 -1.5625,1.20442 -3.125,2.40885 -4.6875,3.61328 0.61278,-2.96175 1.25373,-4.38059 3,-7 0.99,-0.33 1.98,-0.66 3,-1 z"
     fill="#479d4c"
     id="path56" />
  <path
     d="m 506.50781,117.25954 c 4.31392,0.47932 6.1657,1.7458 9,5 -4.31392,-0.47933 -6.16569,-1.7458 -9,-5 z"
     fill="#4da151"
     id="path57" />
  <path
     d="m 352.50781,195.25954 c -2,2 -2,2 -3.94531,2.19531 -2.01823,-0.0651 -4.03646,-0.13021 -6.05469,-0.19531 0,-0.66 0,-1.32 0,-2 3.69542,-0.95025 6.30459,-0.95025 10,0 z"
     fill="#3e9542"
     id="path58" />
  <path
     d="m 315.50781,193.25954 c 0.33,0.66 0.66,1.32 1,2 2.64,-0.33 5.28,-0.66 8,-1 0,0.99 0,1.98 0,3 -3.3,-0.33 -6.6,-0.66 -10,-1 0.33,-0.99 0.66,-1.98 1,-3 z"
     fill="#4d9e4d"
     id="path59" />
  <path
     d="m 502.50781,566.25954 c -0.33,1.32 -0.66,2.64 -1,4 -2.96175,-0.61278 -4.38059,-1.25373 -7,-3 2.76265,-0.59733 5.16033,-1 8,-1 z"
     fill="#5bab60"
     id="path60" />
  <path
     d="m 161.50781,355.25954 c -2.64,1.65 -5.28,3.3 -8,5 0,-0.99 0,-1.98 0,-3 3.0969,-3.0969 3.51439,-3.12141 8,-2 z"
     fill="#4a9f4d"
     id="path61" />
  <path
     d="m 158.50781,392.25954 c 2.0412,1.61595 4.04073,3.28563 6,5 0,0.66 0,1.32 0,2 -2.468,-1.15174 -4.04783,-2.04784 -6,-4 0,-0.99 0,-1.98 0,-3 z"
     fill="#469b4a"
     id="path62" />
  <path
     d="m 494.50781,194.25954 c 1.98,0 3.96,0 6,0 0,0.99 0,1.98 0,3 -2.64,0 -5.28,0 -8,0 0.66,-0.33 1.32,-0.66 2,-1 0,-0.66 0,-1.32 0,-2 z"
     fill="#489c4c"
     id="path63" />
  <path
     d="m 160.50781,38.259537 c 0.33,0.99 0.66,1.98 1,3 -3.96,0 -7.92,0 -12,0 0.33,-0.66 0.66,-1.32 1,-2 3.36528,-0.534172 6.59628,-1 10,-1 z"
     fill="#5eaf64"
     id="path64" />
  <path
     d="m 471.50781,21.259537 c 2.97,1.98 2.97,1.98 6,4 -0.33,1.32 -0.66,2.64 -1,4 -5,-5.75 -5,-5.75 -5,-8 z"
     fill="#489c4c"
     id="path65" />
  <path
     d="m 533.50781,474.25954 c 0.33,0 0.66,0 1,0 0,1.98 0,3.96 0,6 -0.33,0 -0.66,0 -1,0 0,-1.98 0,-3.96 0,-6 z"
     fill="#67b267"
     id="path66" />
  <path
     d="m 533.50781,362.25954 c 0.33,0 0.66,0 1,0 0,1.98 0,3.96 0,6 -0.33,0 -0.66,0 -1,0 0,-1.98 0,-3.96 0,-6 z"
     fill="#69b469"
     id="path67" />
  <path
     d="m -0.4921875,436.25954 c 1,4 1,4 1,4 z"
     fill="#64ae67"
     id="path68" />
  <path
     d="m 533.50781,235.25954 c 0,3 0,3 0,3 z"
     fill="#69b069"
     id="path69" />
  <path
     d="m 96.507812,57.259537 c 1,4 1,4 1,4 z"
     fill="#66ae66"
     id="path70" />
  <path
     d="m 168.50781,1.2595367 c 4,1 4,1 4,1 z"
     fill="#66b066"
     id="path71" />
  <path
     d="m 60.507812,606.25954 c 0.990001,0.495 0.990001,0.495 2,1 -0.99,0.495 -0.99,0.495 -2,1 0,-0.66 0,-1.32 0,-2 z"
     fill="#65b066"
     id="path72" />
  <path
     d="m 339.50781,117.25954 c 3,1 3,1 3,1 z"
     fill="#64b369"
     id="path84" />
  <path
     d="m 324.50781,117.25954 c 3,1 3,1 3,1 z"
     fill="#67b269"
     id="path85" />
  <path
     d="m 308.50781,117.25954 c 3,1 3,1 3,1 z"
     fill="#66b46a"
     id="path86" />
  <path
     d="m 267.50781,117.25954 c 3,1 3,1 3,1 z"
     fill="#64b368"
     id="path87" />
  <path
     d="m 227.50781,117.25954 c 3,1 3,1 3,1 z"
     fill="#66b369"
     id="path88" />
  <path
     d="m 53.507812,603.25954 c 2,1 2,1 2,1 z"
     fill="#66ad64"
     id="path89" />
  <path
     d="m 532.50781,468.25954 c 2,1 2,1 2,1 z"
     fill="#68b36a"
     id="path101" />
  <path
     d="m 286.50781,384.25954 c 2,1 2,1 2,1 z"
     fill="#65af64"
     id="path115" />
  <path
     d="m 395.50781,343.25954 c 2,1 2,1 2,1 z"
     fill="#65af67"
     id="path119" />
  <path
     d="m 492.50781,117.25954 c 2,1 2,1 2,1 z"
     fill="#67b46a"
     id="path136" />
  <path
     d="m 315.50781,117.25954 c 2,1 2,1 2,1 z"
     fill="#65b369"
     id="path137" />
  <path
     d="m 292.50781,117.25954 c 2,1 2,1 2,1 z"
     fill="#64b369"
     id="path138" />
  <path
     d="m 283.50781,117.25954 c 2,1 2,1 2,1 z"
     fill="#66b46a"
     id="path139" />
  <path
     d="m 260.50781,117.25954 c 2,1 2,1 2,1 z"
     fill="#66b369"
     id="path140" />
  <path
     d="m 183.50781,116.25954 c 2,1 2,1 2,1 z"
     fill="#68b06a"
     id="path141" />
  <path
     d="m 418.50781,0.25953674 c 2,0.99999996 2,0.99999996 2,0.99999996 z"
     fill="#6aae68"
     id="path145" />
</svg>
